<svg width="550" height="550" viewBox="0 0 550 550" fill="none" xmlns="http://www.w3.org/2000/svg">
<path d="M0 104C0 46.5624 46.5624 0 104 0H446C503.438 0 550 46.5624 550 104V446C550 503.438 503.438 550 446 550H104C46.5624 550 0 503.438 0 446V104Z" fill="white"/>
<path d="M108.442 370.918L279.19 469.558V278.401L108.442 177.721V370.918Z" fill="#6B6BFF"/>
<path d="M442.456 177.721L279.19 80.4422L108.442 177.721L279.19 278.401L442.456 177.721Z" fill="#5D98FF"/>
<path d="M442.456 370.918V177.721L279.19 278.401V469.558L442.456 370.918Z" fill="#3434F6"/>
<path fill-rule="evenodd" clip-rule="evenodd" d="M276.497 75.7136C278.199 74.7434 280.292 74.7638 281.976 75.767L445.241 173.046C446.889 174.027 447.898 175.803 447.898 177.721V370.918C447.898 372.824 446.901 374.591 445.27 375.576L282.005 474.216C280.307 475.242 278.186 475.262 276.468 474.27L105.72 375.631C104.037 374.658 103 372.862 103 370.918V177.721C103 175.766 104.049 173.96 105.748 172.992L276.497 75.7136ZM113.884 187.248L273.748 281.51V460.129L113.884 367.777V187.248ZM284.633 459.912L437.014 367.848V187.471L284.633 281.439V459.912ZM279.128 272.046L431.958 177.801L279.129 86.7406L119.294 177.802L279.128 272.046Z" fill="black"/>
<path d="M365.585 225.34L279.19 170.238L185.993 225.34L279.19 280.442V377.721L365.585 328.741V225.34Z" fill="#D9D9D9"/>
<path d="M185.993 328.741L279.19 377.721V280.442L185.993 225.34V328.741Z" fill="#D9D9D9"/>
<path fill-rule="evenodd" clip-rule="evenodd" d="M276.421 165.553C278.186 164.51 280.388 164.547 282.117 165.65L368.512 220.752C370.079 221.751 371.027 223.481 371.027 225.34V328.741C371.027 330.701 369.974 332.509 368.269 333.476L281.875 382.455C280.263 383.369 278.298 383.4 276.659 382.538L183.461 333.559C181.672 332.618 180.551 330.763 180.551 328.741V225.34C180.551 223.416 181.567 221.635 183.223 220.656L276.421 165.553ZM191.435 234.88L273.748 283.547V368.713L191.435 325.454V234.88ZM284.633 368.38L360.143 325.571V235.234L292.308 278.236C289.77 279.845 286.407 279.092 284.798 276.553C283.189 274.015 283.942 270.652 286.481 269.043L355.443 225.326L279.083 176.624L196.686 225.34L281.96 275.758C283.617 276.737 284.633 278.518 284.633 280.442V368.38Z" fill="black"/>
<path d="M294.837 289.966L403.68 336.905L364.905 358.673L342.456 398.81L294.837 289.966Z" fill="#D9D9D9"/>
<path fill-rule="evenodd" clip-rule="evenodd" d="M290.979 286.128C292.555 284.543 294.94 284.084 296.992 284.969L405.836 331.907C407.736 332.727 409.007 334.554 409.115 336.621C409.223 338.688 408.149 340.637 406.345 341.65L368.906 362.668L347.206 401.466C346.197 403.269 344.254 404.346 342.191 404.245C340.127 404.144 338.298 402.884 337.47 400.991L289.851 292.147C288.955 290.1 289.402 287.712 290.979 286.128ZM305.354 300.428L343.052 386.595L360.155 356.017C360.645 355.142 361.366 354.419 362.241 353.928L391.423 337.545L305.354 300.428Z" fill="black"/>
</svg>
